<?xml version="1.0" encoding="utf-8"?>
<!-- Generator: Adobe Illustrator 16.0.0, SVG Export Plug-In . SVG Version: 6.00 Build 0)  -->
<!DOCTYPE svg PUBLIC "-//W3C//DTD SVG 1.1//EN" "http://www.w3.org/Graphics/SVG/1.1/DTD/svg11.dtd">
<svg version="1.1" id="Layer_1" xmlns="http://www.w3.org/2000/svg" xmlns:xlink="http://www.w3.org/1999/xlink" x="0px" y="0px"
	 width="240px" height="240px" viewBox="0 0 240 240" enable-background="new 0 0 240 240" xml:space="preserve">
<g>
	<path fill="#787878" d="M126.543,91.703c4.385-1.078,5.49-1.964,5.473-3.574c-0.018-1.576-1.934-1.801-2.625-0.773l-0.051,0.05
		c-0.607,1.108-2.1,2.236-4.607,3.039c-0.381,0.124-0.744,0.256-1.09,0.396c-0.383,0.166-0.65,0.477-0.582,0.93
		c0.123,0.832,1.094,0.729,1.484,0.573C125.129,92.105,125.793,91.887,126.543,91.703 M121.922,111.732
		c0.131-0.652,0.41-2.37,0.443-2.584c0.051-0.325-0.273-0.478-0.611-0.203c-0.289,0.235-0.996,0.955-1.268,2.512
		c-0.18,1.046,0.096,1.119,0.371,1.155C121.396,112.682,121.791,112.383,121.922,111.732 M138.893,109.762
		c0.098-0.421-0.238-1.764-0.414-2.176c-0.176-0.41-0.568-0.569-0.633,0.03c-0.094,0.87-0.234,1.88-0.234,2.146
		C137.611,110.6,138.725,110.5,138.893,109.762 M141.201,112.284c0,1.097-0.314,1.952-0.801,2.333
		c-0.439,0.345-1.449,0.408-1.449-0.492v-1.799c0-0.781-1.133-1.025-1.416-0.04c-0.156,0.547-0.408,3.797-2.48,5.926
		c-3.219,3.304-6.73,4.248-11.869,6.53c-2.684,1.191-3.561,2.708-3.246,4.112c0.363,1.625,2.395,1.436,2.883,0.223
		c0.104-0.229,0.305-0.413,0.568-0.467c0.418-0.089,0.828,0.177,0.918,0.594c0.021,0.105,0.021,0.209,0.016,0.312
		c-0.15,0.526-0.473,1.042-0.926,1.443c-0.328,0.366-4.711,3.915-3.947,5.417c0.447,0.878,1.771,0.541,1.893-0.319
		c0.029-0.164,0.131-0.315,0.291-0.393c0.254-0.124,0.561-0.018,0.686,0.236c0.031,0.064,0.049,0.131,0.061,0.198
		c-0.037,1.03-0.975,2.229-2.578,1.877c-1.219-0.266-1.676-1.318-1.596-2.095c0.047-0.465,0.271-1.092,0.676-1.79
		c0.043-0.092,0.109-0.292-0.021-0.444c-0.174-0.205-0.508-0.05-0.508-0.05c-1.836,1.118-3.354,1.393-4.385,1.078
		c-0.865-0.263-2.369-1.188-2.287-2.957c0.111-2.327,2.098-3.172,3.521-2.842c0.086,0.042,0.174,0.09,0.248,0.156
		c0.303,0.263,0.336,0.723,0.072,1.025c-0.166,0.192-0.41,0.274-0.645,0.255c-1.223-0.151-2.305,1.433-1.133,2.476
		c1.068,0.949,2.289,0.85,5.146-1.021c0,0,0.684-0.456,0.117-1.033c-0.91-0.921-1.031-2.089-0.943-2.835
		c0.18-1.51,0.674-2.899,4.479-4.65c5.004-2.3,8.865-3.743,11.264-7.715c1.873-3.104,1.262-6.69,2.453-10.715
		c0.426-1.436,1.098-1.482,1.545-1.219C138.922,104.254,141.201,107.092,141.201,112.284 M135.924,102.642
		c-0.414,0.771-1.395,1.889-2.064,7.554c-0.574,4.846-1.809,5.58-2.58,5.58c-0.721,0-1.23-1.732-1.676-3.671
		c-0.18-0.783-0.807-0.62-0.926-0.03c-0.057,0.289-0.236,4.456-0.998,6.184c-0.764,1.729-2.908,1.768-3.676,1.78
		c-1.199,0.019-1.467,1.119-1.994,1.559c-0.525,0.439-1.371,0.324-1.412-0.198c-0.039-0.52,0.512-4.028,0.629-5.841
		c0.076-1.199-1.189-1.199-1.393-0.243c-0.104,0.501-0.979,4.438-1.562,6.304c-0.453,1.451-0.895,4.225-3.455,4.739
		c-2.088,0.417-3.123-0.46-3.354-1.063c-0.109-0.296-0.156-0.893,0.77-1.076c1.057-0.208,2.627-1.178,3.383-3.285
		c0.705-1.967,0.787-2.882,2.627-9.398c1.492-5.28,4.553-6.367,5.605-6.731c1.051-0.364,1.521-0.045,1.445,0.404
		c-0.52,3.075-0.801,4.703-1.07,6.641c-0.672,4.805-0.379,6.096-0.359,6.478c0.045,0.708,0.908,0.776,1.25,0.125
		c0.404-0.772,0.344-2.817,0.898-6.875c0.557-4.088,1.387-5.841,1.695-6.631c0.416-1.071,1.289-0.839,1.477-0.359
		c0.25,0.637,1.35,4.621,1.514,5.273c0.107,0.427,0.545,0.426,0.629,0.084c0.068-0.278,0.223-1.716,0.576-3.282
		c0.564-2.494,1.941-3.617,2.463-3.949C135.666,101.886,136.078,102.357,135.924,102.642 M128.146,92.535
		c-3.254,0.68-5.332,2.186-6.049,3.368c-0.096,0.156-0.221,0.561,0.143,0.821c0.314,0.229,0.682-0.138,0.699-0.164
		c0.906-1.144,1.836-1.741,2.65-1.871c0.832-0.132,2.473,0.029,3.125,1.544c0.859,1.996-0.461,3.518-1.789,3.823
		c-0.09,0-0.18-0.005-0.271-0.03c-0.363-0.096-0.576-0.468-0.479-0.83c0.061-0.229,0.229-0.397,0.436-0.477
		c1.086-0.373,1.148-2.136-0.064-2.539c-1.082-0.36-1.891,0.154-3.141,2.007c-0.111,0.183-0.07,0.436-0.037,0.541
		c0.135,0.706-0.832,1.146-1.197,0.389c-0.627-1.452-2.229-2.995-6.035-3.907c-4.488-1.078-6.461-2.503-7.211-4.184
		c-0.516-1.162-0.873-3.448,1.094-4.973c2.355-1.827,5.242-0.886,6.203,0.929c0.037,0.132,0.066,0.267,0.066,0.408
		c0,0.566-0.459,1.023-1.023,1.023c-0.355,0-0.67-0.181-0.852-0.456c-0.982-1.429-3.891-1.044-3.914,1.164
		c-0.025,2.204,1.434,3.125,7.15,4.96c0.611,0.211,0.852-0.18,0.926-0.363c0.701-1.719,0.643-2.581-0.166-3.25
		c-0.982-0.815-2.445,0.173-2.188,1.292c0.043,0.216-0.012,0.45-0.17,0.622c-0.258,0.274-0.686,0.29-0.961,0.035
		c-0.068-0.064-0.121-0.14-0.17-0.215c-0.443-1.289,0.146-3.216,2.297-3.543c1.631-0.25,2.637,1.056,2.965,1.832
		c0.365,0.863,0.297,2.173-0.412,3.817c-0.096,0.205-0.066,0.641,0.334,0.802c0.5,0.2,0.816-0.185,0.891-0.34
		c0.928-2.056,1.178-4.345-1.182-7.52c-1.795-2.417-2.027-4.583-1.557-5.812c0.326-0.849,1.359-2.293,3.127-2.085
		c2.328,0.272,3.033,2.326,2.605,3.731c-0.049,0.084-0.104,0.167-0.174,0.237c-0.285,0.287-0.75,0.287-1.035,0
		c-0.18-0.179-0.244-0.429-0.199-0.661c0.227-1.218-1.287-2.414-2.416-1.311c-1.148,1.124-0.994,2.532,1.344,6.395
		c0.34,0.562,0.617,1.095,0.836,1.599c0.26,0.643,0.832,0.396,0.896,0.373c4.086-1.492,5.061-2.481,4.877-4.057
		c-0.184-1.568-2.111-1.59-2.691-0.497c-0.121,0.206-0.33,0.358-0.582,0.385c-0.402,0.041-0.764-0.25-0.803-0.652
		c-0.012-0.1-0.002-0.198,0.014-0.292c0.551-1.364,2.393-2.514,4.373-1.261c0.797,0.505,1.143,1.241,1.25,1.95
		c0.846-0.304,1.883-0.227,2.887,0.566c1.395,1.103,1.105,2.855,0.736,3.685C132.766,90.746,131.096,91.921,128.146,92.535
		 M112.256,106.19c0.967-0.453,1.615-0.121,1.318,0.424c-0.295,0.545-3.498,6.458-4.043,11.974
		c-0.547,5.516,0.074,8.993,0.258,9.921c0.186,0.925-0.434,1.683-1.979,1.138c-1.547-0.546-6.475-4.076-8.164-10.095
		c-1.83-6.528,0.523-10.488,1.189-11.421c1.336-1.878,3.57-2.128,4.771-0.415c1.076,1.536-0.514,3.864-1.152,3.042
		c-0.369-0.476-0.871-1.275-1.73-0.597c-1.082,0.854-1.615,3.585-0.828,7.364c0.805,3.855,2.377,5.802,2.971,6.431
		c0.592,0.63,1.689,0.802,1.801-0.695c0.109-1.499-0.033-5.153,0.771-9.447C108.244,109.521,110.461,107.033,112.256,106.19
		 M114.918,107.558c0.814-1.546,1.602-2.201,2.684-2.345c2.014-0.264,2.6-1.762,2.506-2.671c0-1.168-1.697-1.241-1.697,0.145
		c0,0.797-0.646,1.443-1.443,1.443c-0.795,0-1.441-0.646-1.441-1.443c0-0.09-0.182-2.614,2.705-2.915
		c1.178-0.124,2.857,0.599,2.857,2.51c0,2.176-1.68,2.602-3.184,5.24c-1.506,2.64-2.727,7.949-3.381,10.841
		c-0.869,3.828-2.814,5.023-3.434,4.162C110.775,122.086,111.35,114.327,114.918,107.558 M132.197,96.368
		c2.975-1.253,5.062-4.197,5.062-7.626c0-4.569-3.705-8.273-8.273-8.273c-0.641,0-1.266,0.073-1.865,0.211
		c-0.441-2.962-2.996-5.234-6.08-5.234c-3.066,0-5.611,2.246-6.074,5.182c-0.525-0.104-1.068-0.159-1.627-0.159
		c-4.568,0-8.271,3.704-8.271,8.273c0,2.934,1.529,5.512,3.834,6.981c-7.402,2.325-12.77,9.239-12.77,17.407
		c0,16.053,15.799,27.229,27.342,31.074c0.105,0.044,0.221,0.07,0.342,0.07c0.48,0,0.871-0.391,0.871-0.871
		c0-0.152-0.535-1.957-0.537-3.782c-0.006-5.121,3.129-8.439,7.494-11.446c4.945-3.403,12.338-8.112,12.338-17.234
		C143.982,103.78,138.932,97.8,132.197,96.368"/>
	<g>
		<g>
			<path fill="#787878" d="M89.947,155.268h-0.746l-0.084,0.728c-0.186,0.032-0.357,0.044-0.531,0.044
				c-0.836,0-1.199-0.733-1.199-1.648c0-0.914,0.363-1.649,1.199-1.649c0.174,0,0.346,0.014,0.531,0.052l0.084,0.722h0.746v-1.38
				c-0.326-0.141-0.799-0.244-1.361-0.244c-1.412,0-2.107,1.138-2.107,2.499s0.695,2.498,2.107,2.498
				c0.562,0,1.035-0.101,1.361-0.242V155.268z M92.502,151.107l0.396,0.409h0.74l-0.799-1.118h-0.678l-0.797,1.118h0.74
				L92.502,151.107z M92.277,156.04l-0.588-0.063l0.168-0.531h1.27l0.166,0.531l-0.588,0.063v0.749h2.135v-0.749l-0.619-0.07
				l-1.367-3.974h-1.559v0.748l0.555,0.064l-1.086,3.163l-0.625,0.07v0.749h2.139V156.04z M92.496,153.389l0.383,1.239h-0.768
				L92.496,153.389z M97.004,156.04l-0.568-0.063l-0.025-2.729l1.047,2.933h0.691l1.047-2.953l-0.025,2.749l-0.568,0.063v0.749
				h2.006v-0.749l-0.574-0.063v-3.17l0.574-0.064v-0.748h-1.738l-1.066,2.933l-1.066-2.933h-1.738v0.748l0.574,0.064v3.17
				l-0.574,0.063v0.749h2.006V156.04z M102.906,156.04l-0.588-0.063l0.166-0.531h1.271l0.166,0.531l-0.588,0.063v0.749h4.068v-0.749
				l-0.574-0.063v-1.093h0.318c0.18,0,0.256,0.064,0.357,0.244l0.525,0.888c0.377,0.632,0.746,0.875,1.361,0.875
				c0.178,0,0.402-0.032,0.49-0.064v-0.816c-0.135,0.031-0.268,0.051-0.467,0.051c-0.186,0-0.357-0.077-0.492-0.307l-0.467-0.793
				c-0.043-0.07-0.08-0.127-0.127-0.179c0.646-0.197,0.869-0.67,0.869-1.341c0-0.888-0.396-1.444-1.66-1.444h-2.166v0.748
				l0.574,0.064v3.17l-0.524,0.058l-0.573-0.065l-1.367-3.974h-1.561v0.748l0.559,0.064l-1.088,3.163l-0.627,0.07v0.749h2.143
				V156.04z M106.828,152.845h0.791c0.562,0,0.646,0.262,0.646,0.594c0,0.338-0.084,0.608-0.646,0.608h-0.791V152.845z
				 M103.123,153.389l0.385,1.239h-0.768L103.123,153.389z M112.34,156.04l-0.588-0.063l0.166-0.531h1.27l0.168,0.531l-0.588,0.063
				v0.749h2.135v-0.749l-0.621-0.07l-1.367-3.974h-1.559v0.748l0.555,0.064l-1.086,3.163l-0.625,0.07v0.749h2.141V156.04z
				 M112.557,153.389l0.383,1.239h-0.766L112.557,153.389z M119.141,154.928l-1.066-2.933h-1.738v0.748l0.576,0.064v3.17
				l-0.576,0.063v0.749h2.006v-0.749l-0.568-0.063l-0.025-2.729l1.049,2.933h0.691l1.047-2.953l-0.025,2.749l-0.568,0.063v0.749
				h2.006v-0.749l-0.576-0.063v-3.17l0.576-0.064v-0.748h-1.738L119.141,154.928z M122.838,155.235c0,1.424,1.17,1.654,1.771,1.654
				c0.6,0,1.77-0.23,1.77-1.654v-2.429l0.574-0.064v-0.748h-2.031v0.748l0.576,0.064v2.353c0,0.804-0.582,0.875-0.889,0.875
				c-0.309,0-0.889-0.07-0.889-0.875v-2.353l0.574-0.064v-0.748h-2.031v0.748l0.574,0.064V155.235z M131.322,152.807l0.574-0.064
				v-0.748h-2.012v0.748l0.574,0.064v2.192l-1.922-3.003h-1.266v0.748l0.574,0.064v3.17l-0.574,0.063v0.749h2.012v-0.749
				l-0.574-0.063v-2.192l1.922,3.004h0.691V152.807z M132.277,152.743l0.574,0.064v3.17l-0.574,0.063v0.749h2.039v-0.749
				l-0.574-0.063v-3.17l0.574-0.064v-0.748h-2.039V152.743z M134.859,154.392c0,1.361,0.695,2.498,2.107,2.498
				c0.562,0,1.035-0.101,1.361-0.242v-1.38h-0.748l-0.082,0.728c-0.186,0.032-0.359,0.044-0.531,0.044
				c-0.838,0-1.201-0.733-1.201-1.648c0-0.914,0.363-1.649,1.201-1.649c0.172,0,0.346,0.014,0.531,0.052l0.082,0.722h0.748v-1.38
				c-0.326-0.141-0.799-0.244-1.361-0.244C135.555,151.893,134.859,153.03,134.859,154.392z M140.908,156.04l-0.576-0.063v-3.17
				l0.576-0.064v-0.748h-2.039v0.748l0.574,0.064v3.17l-0.574,0.063v0.749h2.039V156.04z M143.455,156.04l-0.574-0.063v-0.92h0.684
				c1.252,0,1.688-0.729,1.688-1.535c0-0.798-0.436-1.527-1.688-1.527h-2.146v0.748l0.574,0.064v3.17l-0.574,0.063v0.749h2.037
				V156.04z M142.881,152.845h0.697c0.619,0,0.734,0.371,0.734,0.677c0,0.308-0.115,0.685-0.734,0.685h-0.697V152.845z
				 M145.219,156.04v0.749h2.141v-0.749l-0.59-0.063l0.168-0.531h1.27l0.168,0.531l-0.588,0.063v0.749h2.133v-0.749l-0.619-0.07
				l-1.367-3.974h-1.559v0.748l0.555,0.064l-1.086,3.163L145.219,156.04z M147.576,153.389l0.383,1.239h-0.768L147.576,153.389z
				 M152.775,155.363l-0.064,0.576h-1.182v-3.132l0.574-0.064v-0.748h-2.025v0.748l0.576,0.064v3.17l-0.576,0.063v0.749h3.443
				v-1.426H152.775z M91.891,160.408l0.588,0.063l-0.797,2.588l-0.807-2.588l0.588-0.063v-0.747h-2.139v0.747l0.627,0.069
				l1.416,4.077h0.621l1.412-4.077l0.625-0.069v-0.747h-2.135V160.408z M94.248,160.408l0.574,0.063v3.17l-0.574,0.064v0.748h2.039
				v-0.748l-0.576-0.064v-3.17l0.576-0.063v-0.747h-2.039V160.408z M99.225,159.661h-1.559v0.747l0.555,0.063l-1.086,3.164
				l-0.625,0.07v0.748h2.141v-0.748l-0.588-0.064l0.164-0.53h1.271l0.168,0.53l-0.59,0.064v0.748h2.135v-0.748l-0.619-0.07
				L99.225,159.661z M98.482,162.292l0.383-1.239l0.385,1.239H98.482z M103.982,160.408l0.576,0.063v2.192l-1.926-3.002h-1.264
				v0.747l0.574,0.063v3.17l-0.574,0.064v0.748h2.014v-0.748l-0.576-0.064v-2.191l1.924,3.003h0.689v-3.982l0.574-0.063v-0.747
				h-2.012V160.408z M108.74,159.661h-1.559v0.747l0.555,0.063l-1.086,3.164l-0.625,0.07v0.748h2.141v-0.748l-0.588-0.064
				l0.166-0.53h1.271l0.166,0.53l-0.588,0.064v0.748h2.135v-0.748l-0.621-0.07L108.74,159.661z M108,162.292l0.383-1.239
				l0.383,1.239H108z M114.156,159.661h-1.994v0.747l0.576,0.063v3.17l-0.576,0.064v0.748h1.994c1.604,0,2.057-1.036,2.057-2.397
				S115.76,159.661,114.156,159.661z M114.176,163.603h-0.557v-3.093h0.557c0.863,0,1.123,0.646,1.123,1.546
				C115.299,162.957,115.039,163.603,114.176,163.603z M118.584,159.557c-1.639,0-1.861,1.247-1.861,2.499
				c0,1.253,0.223,2.498,1.861,2.498c1.641,0,1.857-1.245,1.857-2.498C120.441,160.803,120.225,159.557,118.584,159.557z
				 M118.584,163.705c-0.832,0-0.955-0.773-0.955-1.649c0-0.875,0.123-1.648,0.955-1.648c0.83,0,0.951,0.772,0.951,1.648
				C119.535,162.932,119.414,163.705,118.584,163.705z M122.229,162.056c0,1.361,0.695,2.498,2.109,2.498
				c0.561,0,1.035-0.101,1.359-0.242v-1.38h-0.746l-0.084,0.728c-0.186,0.032-0.357,0.046-0.529,0.046
				c-0.838,0-1.201-0.735-1.201-1.649c0-0.914,0.363-1.648,1.201-1.648c0.172,0,0.344,0.013,0.529,0.051l0.084,0.722h0.746v-1.38
				c-0.324-0.14-0.799-0.244-1.359-0.244C122.924,159.557,122.229,160.694,122.229,162.056z M128.604,159.661h-1.561v0.747
				l0.557,0.063l-1.086,3.164l-0.627,0.07v0.748h2.143v-0.748l-0.588-0.064l0.164-0.53h1.273l0.166,0.53l-0.588,0.064v0.748h2.133
				v-0.748l-0.617-0.07L128.604,159.661z M127.863,162.292l0.383-1.239l0.383,1.239H127.863z M132.557,161.551
				c-0.551-0.069-0.85-0.121-0.85-0.51c0-0.326,0.141-0.633,0.807-0.633c0.178,0,0.35,0.013,0.535,0.051l0.082,0.722h0.748v-1.342
				c-0.338-0.153-0.811-0.282-1.365-0.282c-1.42,0-1.701,0.883-1.701,1.477c0,0.863,0.434,1.222,1.604,1.367
				c0.574,0.07,0.793,0.173,0.793,0.57c0,0.395-0.211,0.735-0.939,0.735c-0.23,0-0.441-0.02-0.633-0.058l-0.076-0.715h-0.748v1.316
				c0.299,0.154,1.027,0.306,1.449,0.306c1.488,0,1.855-0.881,1.855-1.583C134.117,162.005,133.586,161.685,132.557,161.551z
				 M134.496,161.085h0.75l0.064-0.576h0.645v3.131l-0.574,0.064v0.748h2.037v-0.748l-0.576-0.064v-3.131h0.646l0.062,0.576h0.748
				v-1.424h-3.803V161.085z M138.617,160.408l0.574,0.063v3.17l-0.574,0.064v0.748h3.561v-1.426h-0.75l-0.064,0.576h-1.291V162.4
				h1.496v-0.85h-1.496v-1.042h1.291l0.064,0.576h0.75v-1.424h-3.561V160.408z M145.318,163.603h-1.184v-3.132l0.576-0.063v-0.747
				h-2.025v0.747l0.574,0.063v3.17l-0.574,0.064v0.748h3.445v-1.426h-0.75L145.318,163.603z M148.402,159.557
				c-1.637,0-1.859,1.247-1.859,2.499c0,1.253,0.223,2.498,1.859,2.498c1.643,0,1.859-1.245,1.859-2.498
				C150.262,160.803,150.045,159.557,148.402,159.557z M148.402,163.705c-0.83,0-0.951-0.773-0.951-1.649
				c0-0.875,0.121-1.648,0.951-1.648s0.953,0.772,0.953,1.648C149.355,162.932,149.232,163.705,148.402,163.705z"/>
		</g>
	</g>
</g>
</svg>
